<?xml version="1.0" standalone="no"?><!DOCTYPE svg PUBLIC "-//W3C//DTD SVG 1.1//EN" "http://www.w3.org/Graphics/SVG/1.1/DTD/svg11.dtd"><svg t="1779798771056" class="icon" viewBox="0 0 1024 1024" version="1.1" xmlns="http://www.w3.org/2000/svg" p-id="2152" xmlns:xlink="http://www.w3.org/1999/xlink" width="200" height="200"><path d="M799.689324 86.760349c107.755086 81.361218 197.083266 185.180227 217.709744 322.949893 15.049705 183.600407-12.43896 319.432973-133.191881 462.685601-84.254394 90.811195-192.503485 144.199722-315.71845 151.028975-175.613485 5.894135-301.76454-32.6872-432.471423-153.955084C30.851016 758.368384 1.688721 636.838028 2.678728 488.322992 7.004021 339.693188 68.526175 223.130832 176.144537 121.28984c175.297122-144.199722 433.587177-160.596714 623.544787-34.529491z" fill="#F0F0F0" p-id="2153"></path><path d="M781.515908 121.405607c60.954297 43.800828 109.942682 99.788124 151.69164 162.015858v21.04763H91.29035c41.653151-104.134375 121.477463-172.676398 221.003115-221.003114l26.099461-13.15452c153.512974-66.87937 305.215593-34.518513 443.121984 51.094146z" fill="#212123" p-id="2154"></path><path d="M91.29035 725.428692h841.917198C891.847806 828.826549 811.823897 899.199886 712.204433 946.431807c-121.068286 48.883596-249.366019 64.554051-372.327494 13.154519-110.091383-52.514287-201.860649-117.352766-248.586589-234.158632z" fill="#FEAF05" p-id="2155"></path><path d="M91.29035 725.428692h841.917198l-21.04763 52.619077H880.586476l10.523815-21.047631a212711.436063 212711.436063 0 0 0-295.302548 3.578796c-45.695015 0.578835-91.400009 1.135714-137.095024 1.651675-44.085255 0.504983-88.17051 1.052881-132.243789 1.641695-16.839102 0.210576-33.688185 0.421152-50.52629 0.588815-23.542608 0.25349-47.074238 0.568855-70.615848 0.906176-13.408009 0.157683-26.825999 0.315365-40.643184 0.494005-30.540521-0.463068-30.540521-0.463068-52.346625 12.186469l-21.047631-52.619077z" fill="#FDB334" p-id="2156"></path><path d="M827.967399 104.514609c51.58915 43.452529 93.76924 82.486952 115.763964 147.33541l-31.571445 21.047631-12.419001-18.133497c-71.457155-98.608498-157.333284-153.164675-271.729002-192.345803L670.108174 51.895533c6.693526-2.473022 13.376074-4.946043 20.269198-7.471959 49.957434-6.987933 97.872979 33.360844 137.590027 60.092033z" fill="#EBEBEB" p-id="2157"></path><path d="M512.911615 5.852219l26.73119-0.44211c62.575035 0.463068 114.500507 12.913006 172.561628 35.960611l-10.523815 21.04763-38.971549-5.177577c-63.300574-7.019869-126.297759-6.883144-189.925674-6.66159l-35.391756-0.126745-34.161232 0.041915-30.74012 0.042914c-28.098437 1.33631-53.861575 5.60871-81.244452 11.881083 13.60661-27.215215 22.2053-28.288055 50.651038-38.149204C398.800324 8.146601 454.15689 6.336245 512.912613 5.852219z" fill="#F3F3F3" p-id="2158"></path><path d="M796.395954 883.287917c21.711295 4.609721 21.711295 4.609721 42.095261 10.523816-33.276014 49.904541-68.773557 78.719535-126.286782 94.716333-49.336684 3.346264-97.978766 2.49398-147.335409 0v-10.524813l24.299085-5.050833c72.19467-16.312163 152.872264-35.308922 207.227845-89.664503z" fill="#F4EBE1" p-id="2159"></path><path d="M428.057429 41.37072c-28.088457 18.732291-50.936464 29.151318-82.22448 40.779909-44.042342 17.112552-79.181605 37.486539-117.731004 64.460239h-21.047631c9.207465-41.444571 14.238338-58.755723 50.651038-82.22448 58.713808-21.878957 108.25009-24.068549 170.352077-23.015668z" fill="#E4E4E4" p-id="2160"></path><path d="M385.96117 946.431807h252.575559l-42.09626 21.04763-31.571445 21.047631c-31.898787 2.800363-31.898787 2.800363-68.406297 2.631702l-36.507509 0.168661c-31.897789-2.799365-31.897789-2.799365-63.470233-23.847994l-10.523815-21.04763z" fill="#FEB430" p-id="2161"></path><path d="M762.192805 67.028071l25.488691 15.080642 19.238273 11.882081-21.047631 21.047631c-38.192118 0-61.691813-11.260333-96.695349-26.310038L654.533527 73.931175l-26.520614-11.512825L670.108174 51.895533l20.553625-7.524852c30.666268-4.2724 45.389629 6.893124 71.531006 22.64741z" fill="#DFDFDF" p-id="2162"></path><path d="M270.197206 925.384176l126.287779 42.095261v10.523816c-90.200424-9.018845-90.200424-9.018845-126.287779-31.571446v-21.047631z" fill="#F3E6D8" p-id="2163"></path><path d="M70.241722 735.952507l21.04763 42.095262h21.048629l10.523815 42.096259-21.04763 10.523815-42.095261-84.19152 10.522817-10.523816z" fill="#F5F6F6" p-id="2164"></path><path d="M143.909427 209.75376c-12.123595 25.973714-21.552614 42.601243-42.095261 63.14389l-21.047631-42.095262c39.464557-21.047631 39.464557-21.047631 63.142892-21.04763z" fill="#E3E3E3" p-id="2165"></path><path d="M122.861796 862.240287l42.095261 42.095261-42.095261-21.047631v-21.04763z m768.249493 0v31.571446h-31.571446l31.571446-31.571446z m-31.571446-736.678047l42.095261 21.04763-10.523815 21.047631-31.571446-42.095261z m-715.629418 0l21.04763 10.523815-42.095261 31.572444 21.047631-42.096259z m663.009344 810.345752l21.04763 10.523815H796.395954l10.523815-10.523815z m-610.390268 0l31.572444 10.523815h-31.572444v-10.523815zM70.241722 799.096397l21.04763 10.523815-10.522817 21.047631-10.524813-31.571446z m873.489641 0v31.571446zM933.207548 199.228947l21.047631 10.523815-10.523816 21.04763-10.523815-31.571445z m-852.441013 0v31.572443zM796.395954 72.943163l31.571445 10.523816H796.395954V72.943163z m-589.342638 0l21.047631 10.523816h-31.571446l10.523815-10.523816z m463.054858 936.633532l31.572444 10.523815z m-347.290894 0l31.572444 10.523815zM670.108174 9.798276l31.572444 10.523815z m-347.290894 0l31.572444 10.523815z" fill="#FFFFFF" p-id="2166"></path><path d="M701.680618 999.051881l21.047631 10.523816z m-399.910968 0l21.04763 10.523816z" fill="#EFEFEF" p-id="2167"></path><path d="M722.728249 988.528066l21.04763 10.523815z m-442.007228 0l21.047631 10.523815z m494.627302-31.572444l21.047631 10.523815z m-547.246378 0l21.047631 10.523815zM775.348323 62.41835L796.395954 72.943163z m-547.246378 0l21.047631 10.523815zM722.728249 30.847902l21.04763 10.523816z m-442.007228 0l21.047631 10.523816z" fill="#FFFFFF" p-id="2168"></path><path d="M701.680618 20.322091l21.047631 10.524813z m-399.910968 0l21.04763 10.524813z" fill="#EFEFEF" p-id="2169"></path></svg>